<?xml version="1.0" standalone="no"?>
<!DOCTYPE svg PUBLIC "-//W3C//DTD SVG 1.1//EN" "http://www.w3.org/Graphics/SVG/1.1/DTD/svg11.dtd" >
<svg xmlns="http://www.w3.org/2000/svg" xmlns:xlink="http://www.w3.org/1999/xlink" version="1.1">
<metadata>
Created by FontForge 20170731 at Sun Oct 21 14:39:05 2018
 By Sönke Peters,,,

</metadata>
<defs>
<font id="Pictos" horiz-adv-x="1697" >
  <font-face 
    font-family="Vogo"
    font-weight="500"
    font-stretch="normal"
    units-per-em="1000"
    panose-1="2 0 5 3 0 0 0 0 0 0"
    ascent="800"
    descent="-200"
    x-height="790"
    cap-height="667"
    bbox="-3 -340 1619 933"
    underline-thickness="50"
    underline-position="-100"
    unicode-range="U+0021-2212"
  />
    <missing-glyph />
    <glyph glyph-name="slash" unicode="/" horiz-adv-x="1041" 
d="M167 542v248h254v-248h75v-65h-405v65h76zM556 -106l313 815l86 -32l-313 -821zM533 147l-38 -102l112 -42l-23 -60l-112 42l-20 -55l-88 33l306 820l87 -33l-20 -55l112 -41l-22 -60l-112 41l-38 -102l112 -42l-23 -60l-112 42l-38 -103l112 -42l-23 -60l-111 42
l-39 -103l112 -41l-22 -60z" />
    <glyph glyph-name="A" unicode="A" horiz-adv-x="957" 
d="M957.135 0h-273.24l-61.9844 118.91h-289.686l-63.25 -118.91h-271.975l341.55 671.715h282.095zM392.945 296.01h164.449l-82.2246 151.8z" />
    <glyph glyph-name="C" unicode="C" horiz-adv-x="1125" 
d="M485 716v-108c-4 0 -11 0 -19 1s-14 2 -18 2c-72 0 -132 -24 -179 -71c-47 -48 -70 -108 -70 -180s23 -132 70 -180s107 -72 179 -72c4 0 10 0 18 1s15 2 19 2v-107c-8 -2 -21 -3 -37 -3c-102 0 -187 34 -255 103c-68 68 -101 154 -101 256s33 187 101 255
s153 103 255 103c4 0 10 -1 18 -1c8 -1 15 -1 19 -1zM762 309c13 -58 42 -106 88 -143s98 -55 158 -55c4 0 9 0 17 1c7 1 13 2 17 2v-107c-8 -2 -19 -3 -34 -3c-103 0 -189 34 -257 102s-102 154 -102 257c0 102 34 187 103 255c68 68 154 103 256 103c4 0 9 -1 17 -1
c7 -1 13 -1 17 -1v-108c-4 0 -10 0 -17 1c-8 1 -13 2 -17 2c-60 0 -112 -19 -158 -56s-75 -84 -88 -142h209v-107h-209z" />
    <glyph glyph-name="D" unicode="D" horiz-adv-x="895" 
d="M91 0v667l56 1h57l93 1h72c109 0 188 -5 237 -15s92 -30 129 -59c37 -30 66 -66 86 -110s30 -92 30 -143c0 -120 -34 -203 -102 -248c-68 -46 -128 -73 -179 -82s-138 -13 -262 -13h-76h-47l-47 1h-47zM307 499v-323l53 -1c55 0 97 2 126 8c28 5 58 18 90 40
c31 22 47 60 47 114c0 61 -17 101 -50 121c-34 19 -63 31 -88 36c-25 4 -56 7 -94 7z" />
    <glyph glyph-name="E" unicode="E" horiz-adv-x="822" 
d="M96 667h665v-168h-452v-83h360v-166h-360v-79l452 1v-172h-665v667z" />
    <glyph glyph-name="I" unicode="I" horiz-adv-x="406" 
d="M96 667h215v-667h-215v667z" />
    <glyph glyph-name="M" unicode="M" horiz-adv-x="930" 
d="M52.6797 672.314h309.91l106.708 -303.408l104.439 303.408h306.504v-672.555h-192.984v377.996l-148.711 -377.996h-141.9l-140.765 359.033v-359.033h-203.201v672.555z" />
    <glyph glyph-name="N" unicode="N" horiz-adv-x="906" 
d="M94 667h246l233 -348c10 -16 23 -41 40 -76c-6 36 -8 65 -8 86v338h209v-667h-247l-233 344c-7 10 -13 21 -19 32s-13 27 -21 47c4 -36 7 -65 7 -87v-336h-207v667z" />
    <glyph glyph-name="O" unicode="O" horiz-adv-x="864" 
d="M722 616c70 -58 106 -150 106 -276c0 -122 -33 -212 -97 -271s-163 -88 -295 -88c-134 0 -233 29 -297 88s-96 150 -96 272c0 126 25 209 76 250c50 41 98 67 144 79c45 11 103 17 173 17c72 0 129 -6 173 -17c43 -11 81 -29 113 -54zM266 349c0 -70 13 -119 39 -149
s69 -44 131 -44c59 0 102 15 129 45c26 30 40 79 40 148c0 57 -14 99 -41 125s-70 40 -128 40c-60 0 -103 -14 -130 -40s-40 -68 -40 -125z" />
    <glyph glyph-name="S" unicode="S" horiz-adv-x="822" 
d="M735 667v-170h-446c-30 0 -44 -13 -44 -39s14 -38 42 -38h93h110s94 -4 173 -12s119 -71 119 -189c0 -85 -22 -140 -66 -165s-82 -40 -114 -46s-72 -8 -119 -8h-213h-179v170h198h224c42 0 64 14 64 43c0 26 -18 40 -54 40h-66h-55c-93 0 -155 2 -187 6s-68 19 -108 45
c-40 25 -60 75 -60 150c0 50 12 92 37 127c24 34 52 56 83 66c30 9 60 15 89 17s74 3 135 3h344z" />
    <glyph glyph-name="a" unicode="a" horiz-adv-x="1684" 
d="M643 -141h909v1019h-909v55h966v-1128h-966v54zM643 878h-512v-1019h512v-54h-568v1128h568v-55zM463 561v48c74 0 136 -26 188 -78c51 -52 77 -114 77 -187c0 -74 -26 -137 -77 -188c-52 -52 -114 -77 -188 -77s-136 25 -188 77c-52 51 -77 114 -77 188
c0 73 25 135 77 187c52 51 114 77 188 78v-48c-60 -1 -111 -22 -153 -64s-63 -93 -63 -153c0 -61 21 -112 63 -154s93 -63 153 -63s112 21 154 63s63 93 63 154c0 60 -21 111 -63 153s-94 64 -154 64zM439 494h40v-170h-143v33h103v137zM1168 150v389h68v-389h110v389h70
v-389h67v-71h-667v530h667v-70h-597v-389h107v389h68v-389h107z" />
    <glyph glyph-name="b" unicode="b" 
d="M653 -141h909v1019h-909v55h966v-1128h-966v54zM653 878h-512v-1019h512v-54h-568v1128h568v-55zM473 561v48c74 0 136 -26 188 -78c51 -52 77 -114 77 -187c0 -74 -26 -137 -77 -188c-52 -52 -114 -77 -188 -77s-136 25 -188 77c-52 51 -77 114 -77 188
c0 73 25 135 77 187c52 51 114 77 188 78v-48c-60 -1 -111 -22 -153 -64s-63 -93 -63 -153c0 -61 21 -112 63 -154s93 -63 153 -63s112 21 154 63s63 93 63 154c0 60 -21 111 -63 153s-94 64 -154 64zM449 494h40v-170h-143v33h103v137zM1486 275v-147h-147v114l-7 18l-7 15
l-12 7l-14 7h-466v150h154v67h-92v62h287v-62h-89v-67h220l33 -6l27 -12l29 -18l25 -22l18 -22l19 -26l15 -29z" />
    <glyph glyph-name="c" unicode="c" 
d="M653 -141h909v1019h-909v55h966v-1128h-966v54zM653 878h-512v-1019h512v-54h-568v1128h568v-55zM533 561v48c74 0 136 -26 188 -78c51 -52 77 -114 77 -187c0 -74 -26 -137 -77 -188c-52 -52 -114 -77 -188 -77s-136 25 -188 77c-52 51 -77 114 -77 188
c0 73 25 135 77 187c52 51 114 77 188 78v-48c-60 -1 -111 -22 -153 -64s-63 -93 -63 -153c0 -61 21 -112 63 -154s93 -63 153 -63s112 21 154 63s63 93 63 154c0 60 -21 111 -63 153s-94 64 -154 64zM509 494h40v-170h-143v33h103v137zM1224 203c59 38 91 120 97 247
l-97 49v29l139 -70c-4 -156 -50 -257 -139 -304v49zM1224 374l23 1l18 -10l-41 -77v86zM1224 571l196 -99v-392l-171 88c13 10 24 19 34 29l96 -50v306l-155 75v43zM1224 528l-100 50v44l100 -51v-43zM1224 499l-100 50v28l100 -49v-29zM1224 288l-14 -28l-26 13l40 77h-29
l1 24h28v-86zM1224 154c-14 -7 -22 -10 -24 -10c-6 0 -10 1 -12 3l-64 32v49l76 -37c8 2 16 6 24 12v-49zM1124 384c8 -1 14 2 18 8c3 6 1 11 -6 15c-4 2 -8 2 -12 0v24c5 0 11 -2 18 -4c19 -10 29 -21 29 -34c0 -18 -9 -27 -27 -27c-4 0 -7 0 -9 2l-1 -1
c10 -8 16 -17 16 -27c0 -18 -9 -29 -26 -31v75zM1124 578l-47 25l7 14l22 -10v25l18 -10v-44zM1124 549l-32 15c-8 -132 -48 -219 -119 -261l151 -75v-49l-207 103l5 39c84 39 127 131 131 277h19l2 5l50 -26v-28zM1124 407c-2 -1 -4 -3 -6 -7l-26 14c8 12 18 18 32 17v-24z
M1124 309c-10 -2 -21 0 -32 6c-19 8 -28 21 -28 37c0 4 1 9 3 14l28 -11c-2 -4 -2 -7 -2 -9c0 -10 5 -14 15 -14c9 0 14 5 14 16c0 7 -7 14 -19 20l9 20c4 -2 8 -4 12 -4v-75z" />
    <glyph glyph-name="d" unicode="d" 
d="M653 -141h909v1019h-909v55h966v-1128h-966v54zM653 878h-512v-1019h512v-54h-568v1128h568v-55zM605 571l37 41v-311c42 -24 63 -60 63 -108c0 -35 -12 -64 -36 -88s-53 -35 -87 -35s-63 12 -87 36s-36 53 -36 87c0 45 19 80 58 104v315h125l-37 -41h-46v-207h46v207z
M870 570c41 30 87 45 138 45c74 0 137 -27 191 -80c53 -53 80 -116 80 -189c0 -82 -21 -147 -63 -195c-45 -52 -107 -78 -187 -78c-59 0 -112 15 -159 46c62 10 109 35 143 77c34 41 51 93 51 157c0 53 -19 100 -57 141c-38 40 -84 66 -137 76z" />
    <glyph glyph-name="e" unicode="e" 
d="M653 -141h909v1019h-909v55h966v-1128h-966v54zM653 878h-512v-1019h512v-54h-568v1128h568v-55zM1406 275v-147h-147v114l-7 18l-7 15l-12 7l-14 7h-466v150h154v67h-92v62h287v-62h-89v-67h220l33 -6l27 -12l29 -18l25 -22l18 -22l19 -26l15 -29zM485 571l37 41v-311
c42 -24 63 -60 63 -108c0 -35 -12 -64 -36 -88s-53 -35 -87 -35s-63 12 -87 36s-36 53 -36 87c0 45 19 80 58 104v315h125l-37 -41h-46v-207h46v207z" />
    <glyph glyph-name="f" unicode="f" 
d="M653 -141h909v1019h-909v55h966v-1128h-966v54zM653 878h-512v-1019h512v-54h-568v1128h568v-55zM1495 282v-133h-132v103l-7 16l-6 14l-11 6l-12 6h-420v136h139v59h-83v57h258v-57h-80v-59h198l30 -6l24 -10l26 -17l23 -20l16 -19l17 -23l13 -27zM534 169v350h61v-350
h99v350h63v-350h61v-63h-601v476h601v-63h-538v-350h97v350h60v-350h97z" />
    <glyph glyph-name="g" unicode="g" horiz-adv-x="1302" 
d="M653 -141h509v1019h-509v55h566v-1128h-566v54zM653 878h-512v-1019h512v-54h-568v1128h568v-55zM458 78v430h379v-430h-379zM707 508v63h-119l1 -63h-36v70c0 19 9 29 28 29h135c18 0 28 -10 28 -29v-70h-37zM429 508v-430h-65c-16 0 -29 5 -39 15s-15 23 -15 39v321
c0 15 5 28 15 39c10 10 23 16 39 16h65zM866 78v430h66c15 0 28 -6 38 -16c10 -11 16 -24 16 -39v-321c0 -16 -6 -29 -16 -39s-23 -15 -38 -15h-66z" />
    <glyph glyph-name="h" unicode="h" horiz-adv-x="1302" 
d="M653 -141h509v1019h-509v55h566v-1128h-566v54zM653 878h-512v-1019h512v-54h-568v1128h568v-55zM605 431v271h86v-271h-86zM572 589v-68c-36 -16 -65 -40 -86 -72c-22 -32 -32 -68 -32 -106c0 -55 18 -101 56 -139c37 -38 83 -56 138 -56c54 0 99 18 137 56
c37 38 56 84 56 139c0 38 -11 74 -32 106s-49 55 -84 71v69c54 -18 97 -49 131 -94c33 -45 50 -96 50 -152c0 -73 -25 -134 -75 -184s-111 -75 -183 -75c-70 0 -130 25 -182 77s-77 112 -77 182c0 60 16 111 48 154s77 74 135 92z" />
    <glyph glyph-name="i" unicode="i" horiz-adv-x="1322" 
d="M665 933c156 0 289 -55 399 -165s165 -243 165 -399c0 -157 -55 -290 -165 -400s-243 -165 -399 -165v56c141 0 261 50 360 148c99 99 149 219 149 361c0 141 -50 261 -149 360s-219 149 -360 149c-142 0 -262 -50 -361 -149s-148 -219 -148 -360
c0 -142 49 -262 148 -361c99 -98 219 -148 361 -148v-56c-158 0 -291 55 -400 165c-110 109 -164 242 -164 400c0 156 54 289 164 399s243 165 400 165zM686 478v-409h-77v409h77zM694 573h-92v84h92v-84z" />
    <glyph glyph-name="j" unicode="j" horiz-adv-x="1302" 
d="M653 -141h509v1019h-509v55h566v-1128h-566v54zM653 878h-512v-1019h512v-54h-568v1128h568v-55zM638 595l-52 -34l-132 12l11 -49h106l15 37l52 34l-116 -295l-12 -160l76 -22v-33l-212 15l7 37l80 7l14 163l-67 309zM694 561l-51 34l230 21l-68 -309l15 -163l81 -7
l6 -37l-212 -15v33l76 22l-12 160l-116 295l51 -34l40 -93h70l23 105z" />
    <glyph glyph-name="k" unicode="k" horiz-adv-x="1302" 
d="M653 -141h509v1019h-509v55h566v-1128h-566v54zM653 878h-512v-1019h512v-54h-568v1128h568v-55zM838 233c21 4 50 7 86 7l3 5c10 20 17 35 21 45l-48 26c-17 12 -27 27 -29 45c-5 28 -12 46 -20 53c-6 4 -10 6 -13 8v45c14 -8 26 -15 36 -21c21 -16 33 -40 35 -73
c0 -10 4 -18 12 -23c26 -15 45 -26 58 -32l21 -16c-26 -48 -45 -84 -57 -107c-10 4 -17 6 -20 6c-38 0 -67 -3 -85 -8v40zM838 333c1 -2 3 -3 6 -4c10 -3 18 6 24 26c5 -15 13 -27 24 -37c-12 -20 -27 -30 -45 -30c-3 0 -6 0 -9 2v43zM838 422c-48 28 -103 43 -166 47v39
c66 -4 121 -17 166 -41v-45zM838 290c-25 4 -43 26 -55 66l40 14c0 -16 5 -29 15 -37v-43zM838 193c-24 -8 -42 -22 -54 -44c-8 -15 -15 -38 -20 -69h-92v86c10 -12 18 -28 22 -46h39l2 7l1 4c13 44 36 74 70 92c6 3 17 6 32 10v-40zM672 536c20 17 31 39 31 65
s-11 47 -31 64v37c41 -22 62 -55 62 -101c0 -37 -16 -67 -48 -90c-7 0 -12 0 -14 1v24zM672 665c-16 12 -32 18 -50 18c-3 0 -7 -1 -12 -1v30c4 1 8 2 12 2c17 0 34 -4 50 -12v-37zM672 512c-24 1 -45 1 -62 1v8c4 -2 8 -2 12 -2c18 0 34 5 50 17v-24zM672 469
c-12 1 -24 2 -35 2c-10 0 -19 -1 -27 -2v41h13c20 0 36 -1 49 -2v-39zM672 80h-11c-6 27 -8 42 -8 45c-6 11 -16 20 -30 28c-6 2 -10 4 -13 5v41c26 -6 46 -17 62 -33v-86zM610 634l21 23h14v-111h-20v74l-15 -18v32zM610 682c-21 -3 -38 -12 -51 -27
c-13 -16 -19 -34 -19 -54c0 -21 6 -39 19 -54s30 -24 51 -26v-8c-17 0 -33 -2 -48 -5c-36 22 -53 53 -53 93c0 29 9 54 28 75s43 33 73 36v-30zM610 602l-7 -8h-28l35 40v-32zM610 469c-67 -3 -123 -23 -167 -59c-31 -26 -47 -55 -49 -89c-2 -20 5 -45 21 -73l3 -128h37
c3 13 9 27 17 41c22 28 55 42 99 42c12 0 25 -2 39 -4v-41c-13 4 -27 6 -41 6c-42 0 -66 -15 -72 -43l-10 -41h-108l-4 157c-3 4 -5 8 -6 11v131c20 40 54 73 102 97c42 20 88 31 139 34v-41zM369 388c1 -1 2 -1 4 -1l-4 -4v5zM369 473c11 -10 16 -27 15 -51l-15 4v47z
M369 426l-25 6c1 10 -2 16 -10 16c-15 0 -21 -8 -19 -22c2 -18 20 -31 54 -38v-5c-6 -10 -10 -20 -13 -32c-52 13 -79 38 -81 75c-1 16 5 30 17 42s26 18 43 18c8 0 17 -2 26 -5l8 -8v-47zM369 248c-11 21 -16 43 -16 66c0 22 5 44 16 65v-131z" />
    <glyph glyph-name="l" unicode="l" horiz-adv-x="1302" 
d="M653 -141h509v1019h-509v55h566v-1128h-566v54zM653 878h-512v-1019h512v-54h-568v1128h568v-55zM1002 271v-154h-154v119l-7 20l-8 15l-12 7l-15 8h-490v158h163v70h-97v65h301v-65h-93v-70h231l35 -7l27 -12l31 -19l27 -24l19 -22l20 -27l14 -31z" />
    <glyph glyph-name="n" unicode="n" horiz-adv-x="1322" 
d="M665 933c158 0 291 -55 400 -164s164 -242 164 -400s-55 -292 -164 -401s-242 -164 -400 -164v56c142 0 262 50 361 148c98 98 148 219 148 361s-50 262 -148 361c-99 98 -219 148 -361 148s-263 -50 -361 -148c-99 -99 -148 -219 -148 -361s49 -263 148 -361
c98 -98 219 -148 361 -148v-56c-158 0 -292 55 -401 164c-109 108 -163 242 -163 401c0 158 54 291 163 400s243 164 401 164zM440 184c92 1 139 64 139 190s-46 190 -136 190h-3v48h3c68 0 120 -23 155 -68c32 -42 49 -99 49 -170s-18 -128 -54 -171
c-36 -44 -87 -66 -153 -68v49zM767 135h-58v468h59v-205l190 205h87l-204 -210l229 -253h-93l-209 243zM440 564c-92 -2 -138 -67 -138 -195v5c0 -127 45 -190 136 -190h2v-49h-7c-70 0 -122 21 -156 63c-30 36 -44 93 -44 171c0 68 16 125 49 170c34 48 87 72 158 73v-48z
" />
    <glyph glyph-name="o" unicode="o" horiz-adv-x="1322" 
d="M665 933c158 0 291 -55 400 -164s164 -242 164 -400s-55 -292 -164 -401s-242 -164 -400 -164v56c142 0 262 50 361 148c98 98 148 219 148 361s-50 262 -148 361c-99 98 -219 148 -361 148s-263 -50 -361 -148c-99 -99 -148 -219 -148 -361s49 -263 148 -361
c98 -98 219 -148 361 -148v-56c-158 0 -292 55 -401 164c-109 108 -163 242 -163 401c0 158 54 291 163 400s243 164 401 164zM628 79v530h76v-530h-76zM469 203v281l141 -141zM861 484v-281l-141 140z" />
    <glyph glyph-name="T" unicode="T" horiz-adv-x="739" 
d="M26 667h686v-176h-231v-491h-222v491h-233v176z" />
    <glyph glyph-name="V" unicode="V" horiz-adv-x="812" 
d="M7 667h233l131 -325c8 -21 14 -37 18 -49s12 -34 23 -65c6 20 12 38 17 53s12 35 22 60l130 326h233l-284 -667h-242z" />
    <glyph glyph-name="W" unicode="W" horiz-adv-x="1093" 
d="M190 0l-162 667h231l59 -317c4 -26 8 -48 11 -64c2 -17 5 -36 8 -57l8 48l10 51l81 339h244l41 -189c17 -77 27 -122 30 -135c3 -14 10 -51 20 -111l12 83l65 352h229l-161 -667h-257l-76 300c-9 32 -15 56 -18 72s-7 40 -11 74c-4 -36 -8 -61 -10 -75s-8 -38 -17 -73
l-78 -298h-259z" />

<!--
reset
-->
    <glyph glyph-name="p" unicode="p" horiz-adv-x="864" 
d="M370 -144v934h135v-934h-135zM89 73v496l249 -248zM781 569v-496l-249 248z" />
    <glyph glyph-name="q" unicode="q" horiz-adv-x="1114" 
d="M499 97v456h130v-456h-130zM557 758v34c131 0 242 -45 332 -135s136 -201 136 -332c0 -132 -45 -242 -135 -332s-201 -135 -332 -135c-132 0 -242 45 -332 135s-135 200 -135 332c0 130 45 241 135 331s200 135 331 137v-35c-122 -2 -224 -44 -307 -127
s-124 -185 -124 -306c0 -122 41 -225 124 -308c83 -82 186 -124 308 -124s224 42 307 124c83 83 125 186 125 308s-42 224 -125 308c-84 83 -186 125 -308 125zM558 620v92c109 0 201 -38 275 -112s112 -166 112 -275c0 -110 -38 -201 -112 -275s-166 -111 -275 -111
c-110 0 -202 37 -276 111s-111 165 -111 275c0 108 37 199 112 273c74 74 166 112 275 114v-92c-83 -2 -153 -31 -209 -87c-57 -56 -85 -126 -85 -208c0 -84 28 -154 84 -210s126 -84 210 -84c83 0 153 28 209 84s85 126 85 210c0 83 -29 153 -85 210
c-56 56 -126 85 -209 85z" />

<!--
tap
-->
    <glyph glyph-name="r" unicode="r" horiz-adv-x="1145" 
d="M1057 218v-218h-217v169l-11 27l-11 22l-17 10l-21 11h-691v223h229v98h-136v93h424v-93h-131v-98h326l49 -10l39 -17l43 -27l38 -33l27 -32l28 -38l21 -44z" />

<!--
solarpanel
-->
    <glyph glyph-name="s" unicode="s" horiz-adv-x="953" 
d="M312 588c-6 -10 -14 -20 -23 -28l212 -252c4 -6 7 -12 7 -17c0 -7 -3 -13 -9 -18c-6 -6 -12 -8 -18 -8c-7 0 -13 3 -19 10l-217 259c-8 -4 -17 -6 -26 -6l173 -475c1 -5 2 -9 2 -12c0 -16 -10 -23 -29 -23c-10 0 -17 5 -21 17c-100 273 -161 439 -181 497
c-29 8 -52 23 -69 47c-18 23 -26 50 -26 80c0 36 13 67 39 93s57 39 94 39c50 0 88 -22 114 -66l347 -30c16 -2 24 -11 23 -28c-2 -17 -11 -25 -27 -23l-326 29c0 -4 1 -9 1 -14c0 -8 -1 -15 -2 -23l244 -141c9 -6 14 -13 14 -21c0 -6 -3 -13 -7 -19c-5 -6 -11 -9 -17 -9
c-5 0 -10 1 -15 5zM519 -117c-8 -15 -20 -23 -36 -23c-12 0 -21 4 -29 11c-8 8 -11 17 -11 28c0 6 1 11 4 17l364 781c7 15 19 23 36 23c11 0 20 -4 28 -12s12 -17 12 -28c0 -5 -2 -10 -4 -16z" />

<!--
time
-->
    <glyph glyph-name="t" unicode="t" horiz-adv-x="1104" 
d="M557 706v85c132 0 242 -45 332 -135s135 -201 135 -333s-45 -243 -135 -332c-90 -90 -200 -135 -332 -135s-243 45 -333 135c-90 89 -134 200 -134 332c0 131 45 241 135 331s200 135 332 137v-85c-108 -2 -199 -39 -272 -112c-74 -73 -110 -163 -110 -271
c0 -109 36 -200 109 -273c73 -72 164 -109 273 -109c108 0 199 37 272 109c73 73 110 164 110 273c0 108 -37 199 -110 273c-73 73 -164 110 -272 110zM515 589h70v-301h-253v59h183v242z" />
    <glyph glyph-name="u" unicode="u" horiz-adv-x="1114" 
d="M90 417h256v-435h435v435h251v-125h-125v-436h-687v436h-130v125zM613 613v-512h-98v514l-88 -84v131l137 130l130 -130v-131z" />
    <glyph glyph-name="less" unicode="&#x3c;" horiz-adv-x="1166" 
d="M588 790l501 -934h-1004z" />
    <glyph glyph-name="greater" unicode="&#x3e;" horiz-adv-x="1166" 
d="M586 -144l-501 934h1004z" />
    <glyph glyph-name="asciicircum" unicode="^" horiz-adv-x="1104" 
d="M895 326c2 -52 -11 -103 -37 -151l-308 313v178zM215 326l335 340v-178l-303 -308c-24 51 -34 100 -32 146zM558 705v85c131 0 242 -45 332 -135s135 -201 135 -332c0 -132 -45 -242 -135 -332s-201 -135 -332 -135c-132 0 -242 45 -332 135s-135 200 -135 332
c0 130 45 241 135 331s201 135 332 136v-85c-108 -1 -198 -38 -272 -111c-74 -74 -110 -164 -110 -271c0 -108 36 -199 110 -272c73 -73 164 -110 272 -110s198 37 272 110c73 73 110 164 110 272s-37 198 -110 272c-74 73 -164 110 -272 110z" />

<!--
error
-->
    <glyph glyph-name="backslash" unicode="\" horiz-adv-x="479" 
d="M394 352v-496h-123v439h-182v495h124v-438h181z" />
    <glyph glyph-name="plus" unicode="+" horiz-adv-x="1322" 
d="M665 933c158 0 291 -55 400 -164s164 -242 164 -400s-55 -292 -164 -401s-242 -164 -400 -164v56c142 0 262 50 361 148c98 98 148 219 148 361s-50 262 -148 361c-99 98 -219 148 -361 148s-263 -50 -361 -148c-99 -99 -148 -219 -148 -361s49 -263 148 -361
c98 -98 219 -148 361 -148v-56c-158 0 -292 55 -401 164c-109 108 -163 242 -163 401c0 158 54 291 163 400s243 164 401 164zM707 80h-79v230h-213v79h213v222h79v-222h222v-79h-222v-230z" />
    <glyph glyph-name="hyphen" unicode="-" horiz-adv-x="1322" 
d="M665 933c158 0 291 -55 400 -164s164 -242 164 -400s-55 -292 -164 -401s-242 -164 -400 -164v56c142 0 262 50 361 148c98 98 148 219 148 361s-50 262 -148 361c-99 98 -219 148 -361 148s-263 -50 -361 -148c-99 -99 -148 -219 -148 -361s49 -263 148 -361
c98 -98 219 -148 361 -148v-56c-158 0 -292 55 -401 164c-109 108 -163 242 -163 401c0 158 54 291 163 400s243 164 401 164zM930 310h-518v80h518v-80z" />

<!--
moon_z
-->
    <glyph glyph-name="parenright" unicode=")" horiz-adv-x="885" 
d="M90 712c71 52 151 79 239 79c128 0 238 -46 330 -136c91 -91 137 -201 137 -329c0 -140 -37 -252 -109 -336c-77 -89 -184 -134 -322 -134c-102 0 -193 27 -275 79c106 17 189 62 248 134c57 70 86 160 86 270c0 92 -34 173 -100 245c-64 68 -142 111 -234 128z" />

<!--
sun
-->
    <glyph glyph-name="asterisk" unicode="*" horiz-adv-x="1071" 
d="M536 531c59 0 108 -20 148 -60c39 -40 59 -89 59 -148c0 -60 -20 -109 -59 -149c-40 -40 -89 -59 -148 -59c-60 0 -109 19 -149 59s-59 89 -59 149c0 59 19 108 59 148s89 60 149 60zM425 555l-57 209c31 16 63 24 95 26l57 -209c-34 -3 -65 -12 -95 -26zM646 91l57 -209
c-32 -16 -63 -24 -95 -26l-56 210c32 2 64 10 94 25zM324 468l-154 153c20 30 43 53 69 70l154 -153c-28 -20 -51 -43 -69 -70zM747 178l154 -153c-20 -29 -43 -52 -69 -70l-154 153c27 18 50 41 69 70zM279 343l-209 56c2 34 10 66 25 95l210 -56c-15 -30 -24 -62 -26 -95z
M792 303l210 -56c-3 -35 -12 -67 -26 -95l-210 56c14 29 23 61 26 95zM304 212l-210 -57c-16 32 -24 63 -25 95l209 57c2 -34 11 -65 26 -95zM767 434l210 57c15 -32 23 -63 25 -95l-209 -57c-3 33 -12 65 -26 95zM390 111l-153 -154c-29 20 -52 43 -69 70l153 153
c18 -28 41 -51 69 -69zM681 535l153 154c29 -20 52 -43 69 -69l-153 -154c-18 27 -41 50 -69 69zM516 67l-56 -210c-35 2 -67 11 -95 25l56 210c30 -15 61 -23 95 -25zM555 579l56 210c36 -2 67 -11 95 -25l-56 -210c-30 14 -61 23 -95 25z" />

<!--
radiator
-->
    <glyph glyph-name="numbersign" unicode="#" horiz-adv-x="1354" 
d="M711 -20v686h119v-686h194v686h125v-686h118v-124h-1177v934h1177v-124h-1053v-686h189v686h119v-686h189z" />
    <glyph glyph-name="quotesingle" unicode="'" horiz-adv-x="656" 
d="M330 790l238 -934h-475z" />

<!--
thermometer
-->
    <glyph glyph-name="exclam" unicode="!" horiz-adv-x="593" 
d="M341 719l63 71v-536c34 -20 60 -46 80 -79s30 -69 30 -107c0 -61 -21 -111 -61 -151s-91 -61 -151 -61c-61 0 -112 21 -152 61s-60 90 -60 151c0 78 33 137 99 179v543h215l-63 -71h-80v-357h80v357z" />
    <glyph glyph-name="w" unicode="w" horiz-adv-x="1145" 
d="M1056 228h-108v-372h-744v372h-113v32h140v-372h685v372h140v-32zM595 751l35 39v-298c40 -22 61 -57 61 -103c0 -33 -12 -61 -34 -84c-23 -23 -51 -34 -83 -34c-33 0 -61 11 -84 34s-34 51 -34 84c0 43 18 76 55 100v301h119l-35 -39h-44v-199h44v199zM808 134
c-34 -33 -73 -49 -118 -49s-84 16 -117 49c-34 -33 -73 -49 -118 -49s-84 16 -118 49c-25 -24 -53 -40 -83 -46v40c48 16 72 46 72 91h23c0 -28 10 -51 31 -69s46 -27 75 -27c28 0 53 9 74 27s32 41 32 69h23c0 -28 10 -51 31 -69s46 -27 75 -27s54 8 75 26
c20 18 31 41 31 70h23c0 -46 24 -76 74 -91l-1 -40c-32 6 -60 22 -84 46z" />

<!--
freeze
-->
    <glyph glyph-name="parenleft" unicode="(" horiz-adv-x="1083" 
d="M696 157l-47 90l19 11v135l-119 76l-124 -76v-135l124 -70l100 59l47 -90l-99 -59v-78l136 -76l-33 -60l-103 60v-87h-97v87l-108 -60l-32 60l140 76v77l-128 75l-63 -37v-162l-68 -2l-2 124l-75 -43l-49 84l75 43l-103 60l35 57l138 -76l67 38v141l-64 37l-141 -81
l-35 57l106 65l-75 43l48 84l76 -43l-1 119l68 -2l3 -158l67 -38l121 68v76l-140 81l32 60l108 -60v87h97v-87l103 60l33 -60l-136 -81v-77l117 -67l71 41l-2 155l68 2v-119l75 43l48 -84l-75 -43l106 -65l-35 -57l-136 84l-69 -40v-141l72 -41l133 79l35 -57l-103 -60
l75 -43l-49 -84l-75 43l-2 -124l-68 2l5 160l-67 39z" />
    <glyph glyph-name="dollar" unicode="$" horiz-adv-x="687" 
d="M682 785c95.855 -39.052 182 -123.765 182 -248v-48c0 -104.63 -65.956 -185.772 -134 -230l-48 69v3c53.529 32.117 100 103.357 100 185c0 74 -34 131 -100 169v100zM682 -23l45 -121h-45v121zM682 630c26 -34 39 -73 39 -116s-13 -83 -39 -121v237zM682 685
c-14 10 -28 17 -41 21l24 86c6 -4 12 -6 17 -7v-100zM682 393c-20 -24 -37 -43 -52 -55v120c7 16 11 31 11 46s-4 30 -11 44v134c20 -14 38 -32 52 -52v-237zM682 -144h-52v258l52 -137v-121zM630 548c-8 28 -23 49 -45 65v97c19 -8 34 -18 45 -28v-134zM630 338
c-5 -5 -8 -7 -10 -7l-35 41v28c22 15 37 34 45 58v-120zM630 -144h-45v69h45l-45 117v196l45 -124v-258zM585 613c-9 9 -23 18 -41 28l35 72c2 0 4 -1 6 -3v-97zM585 372l-13 18c6 4 11 7 13 10v-28zM585 42l-110 296v196l110 -296v-196zM585 -144h-110v69h110v-69zM475 338
l-106 -296v196l106 296v-196zM475 -144h-106v69h106v-69zM369 400c4 -5 9 -8 13 -10l-13 -18v28zM369 710c0 2 2 3 7 3l34 -72c-19 -10 -33 -19 -41 -28v97zM369 613c-37 -31 -55 -67 -55 -109s18 -76 55 -104v-28l-35 -41c-24 14 -44 35 -62 62v237c20 31 53 58 97 80v-97z
M369 42l-45 -117h45v-69h-97v121l97 261v-196zM272 785c8 3 14 5 18 7l24 -86c-14 -4 -28 -11 -42 -21v100zM224 259c-68.851 44.753 -134 124.924 -134 230v48c0 121.896 87.678 207.826 182 248v-100c-67 -38 -100 -95 -100 -169c0 -81.12 45.801 -153.53 100 -185v-3z
M272 393c-27 39 -40 80 -40 123c0 42 13 80 40 114v-237zM272 -144h-44l44 121v-121z" />

<!--
flame_r
-->
    <glyph glyph-name="ampersand" unicode="&#x26;" horiz-adv-x="1385" 
d="M90 -144v934h168v-934h-168zM294 32v183c84 -42 179 -62 285 -62c181 0 342 56 482 169c-140 112 -300 169 -481 169c-106 0 -202 -21 -286 -63v184c106 32 210 49 312 49c274 0 507 -113 697 -339c-190 -227 -423 -340 -697 -340c-102 0 -206 17 -312 50zM294 303v38
c100 48 199 72 298 72c110 0 220 -31 330 -91c-110 -61 -220 -91 -330 -91c-99 0 -198 24 -298 72z" />
    <glyph glyph-name="two" unicode="2" horiz-adv-x="750" 
d="M679 165v-165h-594v154l154 123c31 24 58 46 80 65s42 37 61 53c18 16 30 27 35 35s8 17 8 27c0 36 -30 54 -90 54c-32 0 -63 -5 -91 -15s-61 -27 -98 -51l-90 146c86 62 189 94 307 94c85 0 153 -20 205 -59c51 -40 77 -92 77 -158c0 -54 -15 -95 -45 -125
s-55 -52 -73 -68s-35 -31 -50 -43c-15 -13 -27 -23 -36 -29c-9 -7 -17 -13 -25 -18s-16 -9 -23 -12c-8 -3 -15 -5 -21 -7z" />
    <glyph glyph-name="zero" unicode="0" horiz-adv-x="822" 
d="M672 612c30 -28 54 -65 70 -112s24 -101 24 -163c0 -122 -28 -211 -84 -267c-56 -57 -145 -85 -269 -85c-123 0 -212 28 -268 84s-84 146 -84 271c0 61 8 114 24 160s44 87 85 125c40 38 121 57 243 57s208 -24 259 -70zM267 347c0 -70 11 -121 34 -151
c22 -30 60 -45 113 -45c51 0 88 15 111 46c23 30 35 80 35 150c0 59 -12 102 -35 128s-60 40 -111 40c-52 0 -90 -14 -113 -40s-34 -69 -34 -128z" />
    <glyph glyph-name="germandbls" unicode="&#xdf;" horiz-adv-x="739" 
d="M167 855h451v-143h-426c-20 0 -30 -10 -30 -30c0 -21 10 -31 30 -31h268c48 0 90 -18 124 -52s52 -76 52 -124c0 -49 -18 -91 -52 -125s-76 -51 -124 -51h-457v150h434c19 0 29 10 29 30s-10 30 -29 30h-270c-46 0 -86 17 -118 51c-33 34 -49 74 -49 122v5
c0 47 18 87 52 120s72 49 115 48zM167 215h451v-143h-426c-20 0 -30 -10 -30 -30c0 -21 10 -31 30 -31h268c48 0 90 -17 124 -51s52 -75 52 -124c0 -48 -18 -90 -52 -124s-76 -52 -124 -52h-457v150h434c19 0 29 10 29 30s-10 30 -29 30h-270c-46 0 -86 17 -118 51
c-33 34 -49 75 -49 121v5c0 47 18 87 52 120s72 49 115 48z" />
    <glyph glyph-name="underscore" unicode="_" horiz-adv-x="416" 
d="M55 251v155h308v-155h-308z" />

<!--
piggybank
-->
    <glyph glyph-name="period" unicode="." horiz-adv-x="1146" 
d="M845.01 94.6699c29.1904 5.56055 69.5 9.73047 119.54 9.73047l4.16992 6.94922c13.9004 27.8008 23.6299 48.6504 29.1904 62.5508l-66.7207 36.1396c-23.6299 16.6797 -37.5293 37.5303 -40.3096 62.5498c-6.9502 38.9199 -16.6797 63.9404 -27.7998 73.6699
c-8.33984 5.56055 -13.9004 8.33984 -18.0703 11.1201v62.5498c19.46 -11.1201 36.1396 -20.8496 50.04 -29.1895c29.1904 -22.2402 45.8701 -55.6006 48.6504 -101.471c0 -13.8994 5.55957 -25.0195 16.6797 -31.9697c36.1396 -20.8496 62.5498 -36.1396 80.6201 -44.4795
l29.1895 -22.2402c-36.1396 -66.7197 -62.5498 -116.76 -79.2295 -148.73c-13.9004 5.56055 -23.6299 8.34082 -27.7998 8.34082c-52.8203 0 -93.1299 -4.1709 -118.15 -11.1201v55.5996zM845.01 233.67c1.38965 -2.78027 4.16992 -4.16992 8.33984 -5.55957
c13.9004 -4.16992 25.0205 8.33984 33.3604 36.1396c6.9502 -20.8496 18.0703 -37.5303 33.3604 -51.4297c-16.6807 -27.8008 -37.5303 -41.7002 -62.5508 -41.7002c-4.16992 0 -8.33984 0 -12.5098 2.78027v59.7695zM845.01 357.38
c-66.7197 38.9199 -143.17 59.7705 -230.74 65.3301v54.21c91.7402 -5.55957 168.19 -23.6299 230.74 -56.9902v-62.5498zM845.01 173.9c-34.75 5.55957 -59.7695 36.1396 -76.4502 91.7393l55.6006 19.46c0 -22.2393 6.94922 -40.3096 20.8496 -51.4297v-59.7695z
M845.01 39.0703c-33.3604 -11.1201 -58.3799 -30.5801 -75.0596 -61.1602c-11.1201 -20.8506 -20.8506 -52.8203 -27.8008 -95.9102h-127.88v119.54c13.9004 -16.6797 25.0205 -38.9199 30.5801 -63.9404h54.21l2.78027 9.73047l1.38965 5.55957
c18.0703 61.1602 50.04 102.86 97.3008 127.88c8.33984 4.1709 23.6299 8.34082 44.4795 13.9004v-55.5996zM614.27 515.84c27.8008 23.6299 43.0898 54.21 43.0898 90.3506c0 36.1396 -15.2891 65.3291 -43.0898 88.96v51.4297
c56.9902 -30.5801 86.1807 -76.4502 86.1807 -140.39c0 -51.4307 -22.2402 -93.1309 -66.7207 -125.101c-9.72949 0 -16.6797 0 -19.46 1.39062v33.3594zM614.27 695.15c-22.2393 16.6797 -44.4795 25.0195 -69.5 25.0195c-4.16992 0 -9.72949 -1.38965 -16.6797 -1.38965
v41.7002c5.55957 1.38965 11.1201 2.7793 16.6797 2.7793c23.6299 0 47.2607 -5.55957 69.5 -16.6797v-51.4297zM614.27 482.48c-33.3594 1.38965 -62.5498 1.38965 -86.1797 1.38965v11.1201c5.55957 -2.78027 11.1201 -2.78027 16.6797 -2.78027
c25.0205 0 47.2607 6.9502 69.5 23.6299v-33.3594zM614.27 422.71c-16.6797 1.38965 -33.3594 2.78027 -48.6494 2.78027c-13.9004 0 -26.4102 -1.39062 -37.5303 -2.78027v56.9902h18.0703c27.7998 0 50.04 -1.39062 68.1094 -2.78027v-54.21zM614.27 -118h-15.29
c-8.33984 37.5303 -11.1201 58.3799 -11.1201 62.5498c-8.33984 15.29 -22.2393 27.7998 -41.6992 38.9199c-8.33984 2.78027 -13.9004 5.56055 -18.0703 6.9502v56.9902c36.1396 -8.33984 63.9404 -23.6299 86.1797 -45.8701v-119.54zM528.09 652.06l29.1904 31.9707h19.46
v-154.29h-27.8008v102.859l-20.8496 -25.0195v44.4795zM528.09 718.78c-29.1904 -4.16992 -52.8203 -16.6807 -70.8896 -37.5303c-18.0703 -22.2402 -26.4102 -47.2598 -26.4102 -75.0596c0 -29.1904 8.33984 -54.21 26.4102 -75.0605
c18.0693 -20.8496 41.6992 -33.3604 70.8896 -36.1396v-11.1201c-23.6299 0 -45.8701 -2.78027 -66.7197 -6.9502c-50.04 30.5801 -73.6699 73.6699 -73.6699 129.271c0 40.3096 12.5098 75.0596 38.9199 104.25c26.4102 29.1895 59.7695 45.8691 101.47 50.04v-41.7002z
M528.09 607.58l-9.73047 -11.1201h-38.9199l48.6504 55.5996v-44.4795zM528.09 422.71c-93.1299 -4.16992 -170.97 -31.9697 -232.13 -82.0098c-43.0898 -36.1406 -65.3301 -76.4502 -68.1104 -123.71c-2.7793 -27.7998 6.9502 -62.5498 29.1904 -101.471l4.16992 -177.92
h51.4297c4.16992 18.0703 12.5098 37.5303 23.6299 56.9902c30.5801 38.9199 76.4502 58.3799 137.61 58.3799c16.6797 0 34.75 -2.7793 54.21 -5.55957v-56.9902c-18.0703 5.56055 -37.5303 8.33984 -56.9902 8.33984c-58.3799 0 -91.7402 -20.8496 -100.08 -59.7695
l-13.8994 -56.9902h-150.12l-5.56055 218.23c-4.16992 5.55957 -6.94922 11.1191 -8.33984 15.2891v182.091c27.7998 55.5996 75.0605 101.47 141.78 134.83c58.3799 27.7998 122.32 43.0898 193.21 47.2598v-56.9902zM193.1 310.12
c1.39062 -1.38965 2.78027 -1.38965 5.56055 -1.38965l-5.56055 -5.56055v6.9502zM193.1 428.27c15.29 -13.8994 22.2402 -37.5293 20.8506 -70.8896l-20.8506 5.56055v65.3291zM193.1 362.94l-34.75 8.33984c1.39062 13.8994 -2.7793 22.2393 -13.8994 22.2393
c-20.8506 0 -29.1904 -11.1191 -26.4102 -30.5791c2.78027 -25.0205 27.7998 -43.0908 75.0596 -52.8203v-6.9502c-8.33984 -13.9004 -13.8994 -27.7998 -18.0693 -44.4795c-72.2803 18.0693 -109.811 52.8193 -112.591 104.25
c-1.38965 22.2393 6.9502 41.6992 23.6309 58.3799c16.6797 16.6797 36.1396 25.0195 59.7695 25.0195c11.1201 0 23.6299 -2.78027 36.1396 -6.9502l11.1201 -11.1201v-65.3291zM193.1 115.52c-15.29 29.1904 -22.2402 59.7705 -22.2402 91.7402
c0 30.5801 6.9502 61.1602 22.2402 90.3506v-182.091z" />

<!--
party
-->
    <glyph glyph-name="comma" unicode="," horiz-adv-x="1046" 
d="M526.384 694.334l-84.6562 -54.7988l-214.896 19.3398l17.9072 -78.9736h172.569l24.4189 59.6338l84.6562 54.7988l-188.848 -475.458l-19.5361 -257.876l123.728 -35.4561v-53.1885l-345.136 24.1768l11.3965 59.6338l130.239 11.2812l22.793 262.71l-109.076 498.022z
M617.553 639.535l-83.0283 54.7988l374.44 33.8457l-110.705 -498.022l24.4199 -262.71l131.868 -11.2812l9.76855 -59.6338l-345.137 -24.1768v53.1885l123.729 35.4561l-19.5361 257.876l-188.848 475.458l83.0283 -54.7988l65.1191 -149.89h113.961l37.4434 169.229z" />

<!--
luggage
-->
    <glyph glyph-name="minus" unicode="&#x2212;" horiz-adv-x="1254" 
d="M349.16 -80v636.399h560.92v-636.399h-560.92zM717.681 556.399v93.2402h-176.12l1.47949 -93.2402h-53.2803v103.601c0 28.1201 13.3203 42.9199 41.4404 42.9199h199.8c26.6406 0 41.4404 -14.7998 41.4404 -42.9199v-103.601h-54.7598zM306.24 556.399v-636.399
h-96.2002c-23.6797 0 -42.9199 7.39941 -57.7197 22.1992c-14.7998 14.8008 -22.2002 34.04 -22.2002 57.7207v475.08c0 22.1992 7.40039 41.4395 22.2002 57.7197c14.7998 14.7998 34.04 23.6797 57.7197 23.6797h96.2002zM953 -80v636.399h97.6807
c22.1992 0 41.4395 -8.87988 56.2393 -23.6797c14.7998 -16.2803 23.6807 -35.5205 23.6807 -57.7197v-475.08c0 -23.6807 -8.88086 -42.9199 -23.6807 -57.7207c-14.7998 -14.7998 -34.04 -22.1992 -56.2393 -22.1992h-97.6807z" />

<!--
power_off
-->
    <glyph glyph-name="percent" unicode="%" horiz-adv-x="812" 
d="M343.64 355.44v368.56h116.96v-368.56h-116.96zM298.76 570.32v-92.4805c-48.96 -21.7598 -88.3994 -54.3994 -116.96 -97.9199c-29.9199 -43.5195 -43.5195 -92.4795 -43.5195 -144.16c0 -74.7998 24.4795 -137.359 76.1602 -189.04
c50.3193 -51.6797 112.88 -76.1602 187.68 -76.1602c73.4395 0 134.64 24.4805 186.32 76.1602c50.3193 51.6807 76.1592 114.24 76.1592 189.04c0 51.6807 -14.96 100.641 -43.5195 144.16c-28.5605 43.5205 -66.6396 74.7998 -114.24 96.5605v93.8398
c73.4404 -24.4805 131.92 -66.6406 178.16 -127.84c44.8799 -61.2002 68 -130.561 68 -206.721c0 -99.2793 -34 -182.24 -102 -250.24s-150.96 -102 -248.88 -102c-95.2002 0 -176.8 34 -247.521 104.721c-70.7197 70.7197 -104.72 152.319 -104.72 247.52
c0 81.6006 21.7598 150.96 65.2803 209.44c43.5195 58.4795 104.72 100.64 183.6 125.12z" />
  </font>
</defs>
</svg>
